<svg xmlns="http://www.w3.org/2000/svg" xmlns:xlink="http://www.w3.org/1999/xlink" width="500" zoomAndPan="magnify" viewBox="0 0 375 374.999991" height="500" preserveAspectRatio="xMidYMid meet" version="1.0"><path fill="#ac1e23" d="M 96.652344 58.980469 C 71.960938 61.023438 49.757812 76.519531 35.160156 96.519531 C 20.558594 116.515625 12.722656 140.675781 7.601562 164.890625 C 2.648438 188.28125 0.0273438 212.53125 4.148438 236.078125 C 12.664062 284.6875 50.179688 325.265625 95.410156 345.082031 C 140.640625 364.894531 192.445312 365.835938 240.816406 355.894531 C 282.972656 347.230469 325.78125 328.722656 349.824219 293.054688 C 373.703125 257.617188 374.929688 211.460938 367.9375 169.320312 C 364.234375 147.003906 358.011719 124.117188 343.015625 107.175781 C 326.078125 88.027344 300.59375 79.265625 276.300781 71.269531 C 226.761719 54.953125 173.855469 38.492188 96.660156 58.972656 Z M 96.652344 58.980469 " fill-opacity="1" fill-rule="nonzero"/><path fill="#b82025" d="M 171.105469 66.917969 C 124.878906 61.3125 73.585938 75.332031 46.09375 112.882812 C 29.175781 135.992188 22.898438 165.460938 22.796875 194.089844 C 22.679688 226.542969 30.882812 260.609375 53.46875 283.925781 C 76.054688 307.238281 115.375 315.941406 141.941406 297.285156 C 155.699219 315.195312 177.804688 325.125 200.070312 328.960938 C 242.488281 336.265625 288.363281 322.503906 318.597656 291.902344 C 348.832031 261.296875 361.996094 214.363281 350.527344 172.910156 C 339.054688 131.457031 302.730469 97.539062 260.285156 90.425781 C 230.367188 85.417969 196.636719 92.160156 171.105469 66.917969 Z M 171.105469 66.917969 " fill-opacity="1" fill-rule="nonzero"/><path fill="#dc1f26" d="M 145.417969 85.050781 C 106.328125 94.140625 71.902344 121.472656 54.207031 157.46875 C 46.394531 173.359375 41.710938 191.566406 45.558594 208.855469 C 49.410156 226.136719 63.386719 241.886719 81.007812 243.785156 C 101.433594 245.996094 119.023438 230.472656 133.660156 216.054688 C 151.09375 198.871094 168.527344 181.683594 185.960938 164.507812 C 194.433594 156.152344 203.417969 146.773438 204.519531 134.9375 C 205.253906 127.101562 202.304688 119.324219 198.222656 112.597656 C 190.132812 99.25 177.265625 88.867188 145.425781 85.054688 Z M 145.417969 85.050781 " fill-opacity="1" fill-rule="nonzero"/><path fill="#dc1f26" d="M 284.769531 133.886719 C 276.722656 141.5625 268.53125 149.417969 263.3125 159.234375 C 258.089844 169.046875 256.242188 181.335938 261.28125 191.25 C 265.480469 199.496094 273.667969 204.875 281.703125 209.480469 C 289.011719 213.675781 297.195312 217.679688 305.507812 216.304688 C 316.3125 214.527344 323.695312 204.148438 327.007812 193.714844 C 336.351562 164.277344 322.175781 131.753906 284.769531 133.886719 Z M 284.769531 133.886719 " fill-opacity="1" fill-rule="nonzero"/><path fill="#1a723a" d="M 203.6875 16.566406 C 213.539062 31.425781 218.527344 49.453125 217.722656 67.265625 C 200.945312 38.75 161.957031 25.730469 131.390625 38.433594 C 116.140625 44.769531 100.992188 56.824219 85.085938 52.40625 C 102.039062 59.925781 121.539062 56.394531 140 54.5625 C 158.460938 52.730469 179.453125 53.707031 192.121094 67.242188 C 154.574219 66.628906 112.867188 71.3125 87.851562 99.296875 C 73.496094 115.351562 64.503906 138.910156 43.808594 144.890625 C 98.617188 142.699219 145.816406 91.792969 200.019531 100.253906 C 180.273438 134.8125 209.164062 183.300781 187.441406 216.652344 C 212.164062 184.851562 225.429688 144.34375 224.304688 104.09375 C 229.007812 120.550781 244.726562 133.238281 261.8125 134.359375 C 256.824219 124.65625 251.835938 114.953125 246.847656 105.253906 C 285.679688 113.304688 321.496094 135.1875 346.371094 166.050781 C 333.960938 128.800781 302.671875 98.371094 265.066406 86.992188 C 286.433594 82.746094 307.792969 78.5 329.160156 74.253906 C 302.125 66.21875 272.988281 65.359375 245.53125 71.808594 C 240.800781 53.042969 239.101562 33.523438 239.847656 14.234375 C 229.539062 10.046875 218.039062 8.847656 203.699219 16.558594 Z M 203.6875 16.566406 " fill-opacity="1" fill-rule="nonzero"/><path fill="#228641" d="M 219.597656 16.863281 C 226.847656 32.265625 228.96875 50.027344 225.546875 66.703125 C 179.125 60.042969 129.949219 76.636719 97.066406 110.054688 C 132.222656 94.960938 169.660156 85.191406 207.707031 81.171875 C 202.8125 112.269531 200.855469 143.820312 201.875 175.289062 C 208.800781 150.4375 215.230469 125.445312 221.15625 100.34375 C 227.632812 109.292969 235.5625 117.203125 244.535156 123.652344 C 242.539062 112.855469 239.382812 102.277344 235.140625 92.152344 C 253.972656 99.035156 272.804688 105.914062 291.636719 112.796875 C 281.660156 94.324219 264.429688 79.894531 244.488281 73.308594 C 258.863281 73.585938 273.238281 73.867188 287.621094 74.148438 C 272.058594 66.527344 254.304688 63.449219 237.078125 65.367188 C 240.816406 48.914062 241.816406 31.839844 240.019531 15.058594 C 234.75 19.136719 228.703125 22.207031 219.597656 16.863281 Z M 219.597656 16.863281 " fill-opacity="1" fill-rule="nonzero"/><path fill="#f15b22" d="M 155.210938 111.246094 C 117.515625 120.75 86.039062 151.691406 75.921875 189.195312 C 74.058594 196.101562 73.609375 205.023438 79.675781 208.816406 C 86.394531 213.019531 94.789062 207.339844 100.621094 201.972656 C 118.847656 185.207031 137.074219 168.441406 155.296875 151.679688 C 161.675781 145.816406 168.304688 139.558594 170.9375 131.300781 C 173.5625 123.046875 170.457031 112.292969 155.21875 111.25 Z M 155.210938 111.246094 " fill-opacity="1" fill-rule="nonzero"/></svg>